<?xml version="1.0" encoding="UTF-8" standalone="no" ?>
<!DOCTYPE svg PUBLIC "-//W3C//DTD SVG 1.1//EN" "http://www.w3.org/Graphics/SVG/1.1/DTD/svg11.dtd">
<svg xmlns="http://www.w3.org/2000/svg" xmlns:xlink="http://www.w3.org/1999/xlink" version="1.1" width="1080" height="1080" viewBox="0 0 1080 1080" xml:space="preserve">
<desc>Created with Fabric.js 5.2.4</desc>
<defs>
</defs>
<g transform="matrix(1 0 0 1 540 540)" id="a477050e-758e-4814-af1d-f8a10ba9f045"  >
<rect style="stroke: none; stroke-width: 1; stroke-dasharray: none; stroke-linecap: butt; stroke-dashoffset: 0; stroke-linejoin: miter; stroke-miterlimit: 4; fill: rgb(255,255,255); fill-rule: nonzero; opacity: 1; visibility: hidden;" vector-effect="non-scaling-stroke"  x="-540" y="-540" rx="0" ry="0" width="1080" height="1080" />
</g>
<g transform="matrix(1 0 0 1 540 540)" id="9872d1bf-e5a5-47d9-8a73-e563f66320d6"  >
</g>
<g transform="matrix(1 0 0 1 540 540)"  >
<g style="" vector-effect="non-scaling-stroke"   >
		<g transform="matrix(33.33 0 0 33.33 0 0)"  >
<path style="stroke: none; stroke-width: 1; stroke-dasharray: none; stroke-linecap: butt; stroke-dashoffset: 0; stroke-linejoin: miter; stroke-miterlimit: 4; fill: rgb(255,255,255); fill-rule: nonzero; opacity: 1;" vector-effect="non-scaling-stroke"  transform=" translate(-12, -12)" d="M 19 12.75 L 5 12.75 C 4.80109 12.75 4.61032 12.671 4.46967 12.5303 C 4.32902 12.3897 4.25 12.1989 4.25 12 C 4.25 11.8011 4.32902 11.6103 4.46967 11.4697 C 4.61032 11.329 4.80109 11.25 5 11.25 L 19 11.25 C 19.1989 11.25 19.3897 11.329 19.5303 11.4697 C 19.671 11.6103 19.75 11.8011 19.75 12 C 19.75 12.1989 19.671 12.3897 19.5303 12.5303 C 19.3897 12.671 19.1989 12.75 19 12.75 Z" stroke-linecap="round" />
</g>
		<g transform="matrix(33.33 0 0 33.33 0 -150)"  >
<path style="stroke: none; stroke-width: 1; stroke-dasharray: none; stroke-linecap: butt; stroke-dashoffset: 0; stroke-linejoin: miter; stroke-miterlimit: 4; fill: rgb(255,255,255); fill-rule: nonzero; opacity: 1;" vector-effect="non-scaling-stroke"  transform=" translate(-12, -7.5)" d="M 19 8.25 L 5 8.25 C 4.80109 8.25 4.61032 8.17098 4.46967 8.03033 C 4.32902 7.88968 4.25 7.69891 4.25 7.5 C 4.25 7.30109 4.32902 7.11032 4.46967 6.96967 C 4.61032 6.82902 4.80109 6.75 5 6.75 L 19 6.75 C 19.1989 6.75 19.3897 6.82902 19.5303 6.96967 C 19.671 7.11032 19.75 7.30109 19.75 7.5 C 19.75 7.69891 19.671 7.88968 19.5303 8.03033 C 19.3897 8.17098 19.1989 8.25 19 8.25 Z" stroke-linecap="round" />
</g>
		<g transform="matrix(33.33 0 0 33.33 0 150)"  >
<path style="stroke: none; stroke-width: 1; stroke-dasharray: none; stroke-linecap: butt; stroke-dashoffset: 0; stroke-linejoin: miter; stroke-miterlimit: 4; fill: rgb(255,255,255); fill-rule: nonzero; opacity: 1;" vector-effect="non-scaling-stroke"  transform=" translate(-12, -16.5)" d="M 19 17.25 L 5 17.25 C 4.80109 17.25 4.61032 17.171 4.46967 17.0303 C 4.32902 16.8897 4.25 16.6989 4.25 16.5 C 4.25 16.3011 4.32902 16.1103 4.46967 15.9697 C 4.61032 15.829 4.80109 15.75 5 15.75 L 19 15.75 C 19.1989 15.75 19.3897 15.829 19.5303 15.9697 C 19.671 16.1103 19.75 16.3011 19.75 16.5 C 19.75 16.6989 19.671 16.8897 19.5303 17.0303 C 19.3897 17.171 19.1989 17.25 19 17.25 Z" stroke-linecap="round" />
</g>
</g>
</g>
</svg>